<!-- Created by https://thenounproject.com/sophiabai/ -->
<svg fill="#000000" xmlns="http://www.w3.org/2000/svg" viewBox="0 0 24 24" x="0px" y="0px">
  <title>Subway Car</title>
  <path d="M21,12a8.96727,8.96727,0,0,1-3,6.69476v-1.421a8,8,0,1,0-12,0v1.4209A8.99583,8.99583,0,1,1,21,12ZM17,9V19H14.6l1.8,3H15.23383l-1.8-3H10.56622l-1.8,3H7.6l1.8-3H7V9A2,2,0,0,1,9,7h6A2,2,0,0,1,17,9Zm-1,4H8v5h8Zm0-4H8v3h8ZM9.5,16.5a1,1,0,1,0-1-1A1,1,0,0,0,9.5,16.5Zm5,0a1,1,0,1,0-1-1A1,1,0,0,0,14.5,16.5Z"></path>
</svg>
