<!-- Created by https://thenounproject.com/sophiabai/ -->
<svg fill="#000000" xmlns="http://www.w3.org/2000/svg" viewBox="0 0 24 24" x="0px" y="0px">
  <title>Subway Car</title>
  <path d="M12,3A8.99067,8.99067,0,0,0,6,18.6947V17.2738a8,8,0,1,1,12,0v1.421A8.99071,8.99071,0,0,0,12,3Z"></path>
  <path d="M15,7H9A2,2,0,0,0,7,9V19H9.4L7.6,22H8.76624l1.8-3h2.86762l1.8,3H16.4l-1.8-3H17V9A2,2,0,0,0,15,7ZM9.5,16.5a1,1,0,1,1,1-1A1,1,0,0,1,9.5,16.5Zm5,0a1,1,0,1,1,1-1A1,1,0,0,1,14.5,16.5ZM16,12H8V9h8Z"></path>
</svg>
