<!-- Created by https://thenounproject.com/sophiabai/ -->
<svg fill="#000000" xmlns="http://www.w3.org/2000/svg" viewBox="0 0 24 24" x="0px" y="0px">
  <title>Warning Sign</title>
  <path d="M12,5.94464a.98341.98341,0,0,1,.86194.493L19.36511,17.493A1,1,0,0,1,18.50317,19H5.49683a1,1,0,0,1-.86191-1.507L11.13806,6.43762A.98341.98341,0,0,1,12,5.94464m0-1a1.98175,1.98175,0,0,0-1.72388.986L3.773,16.986A2,2,0,0,0,5.49683,20H18.50317A2,2,0,0,0,20.227,16.986L13.72388,5.9306A1.98175,1.98175,0,0,0,12,4.94464ZM13,16a1,1,0,1,1-1-1A1,1,0,0,1,13,16Zm0-5v2a1,1,0,0,1-2,0V11a1,1,0,0,1,2,0Z"></path>
</svg>
